<svg width="262.959" height="262.959" xmlns="http://www.w3.org/2000/svg">

 <g>
  <title>background</title>
  <rect fill="none" id="canvas_background" height="402" width="582" y="-1" x="-1"/>
 </g>
 <g>
  <title>Layer 1</title>
  <g id="svg_1">
   <path id="svg_2" fill="#ccb5a9" d="m221.006,68.964l-172.238,0c-6.01,0 -9.981,4.786 -8.877,10.693l32.265,172.609c1.104,5.907 6.87,10.693 12.874,10.693l101.526,0c6.01,0 11.732,-4.797 12.782,-10.715l30.649,-172.576c1.049,-5.907 -2.976,-10.704 -8.981,-10.704zm-116.531,171.047c-4.547,0.8 -8.98,-2.79 -9.905,-8.039l-22.773,-129.123c-0.919,-5.238 2.012,-10.138 6.56,-10.943c4.547,-0.794 8.974,2.801 9.899,8.039l22.773,129.129c0.924,5.243 -2.013,10.132 -6.554,10.937zm38.813,-8.495c0,5.325 -3.742,9.633 -8.36,9.633c-4.612,0 -8.354,-4.313 -8.354,-9.633l0,-131.12c0,-5.314 3.742,-9.633 8.354,-9.633c4.618,0 8.36,4.313 8.36,9.633l0,131.12zm55.897,-128.667l-22.768,129.123c-0.925,5.249 -5.363,8.838 -9.91,8.039c-4.536,-0.8 -7.479,-5.695 -6.554,-10.938l22.779,-129.129c0.925,-5.238 5.352,-8.833 9.899,-8.039c4.547,0.806 7.479,5.706 6.554,10.944z"/>
   <path id="svg_3" fill="#ccb5a9" d="m180.507,32.897c-1.588,-1.833 -2.725,-4.123 -3.269,-6.587c-6.065,-27.739 -35.43,-26.298 -35.43,-26.298l-20.016,0c-27.038,0 -34.663,15.316 -36.67,26.265c-0.446,2.458 -1.452,4.737 -2.899,6.565c-2.497,3.133 -10.813,3.938 -16.828,3.938l-33.858,0c-6.01,0 -10.878,4.569 -10.878,10.198s4.868,10.198 10.878,10.198l199.886,0c6.005,0 10.878,-4.569 10.878,-10.198s-4.873,-10.198 -10.878,-10.198l-33.853,0c-6.011,0.001 -14.381,-0.782 -17.063,-3.883zm-61.63,-15.224l11.183,0l11.183,0c9.475,0 14.201,4.357 16.562,8.942c1.202,2.333 0.859,4.629 -0.402,6.467c-2.138,3.111 -10.448,3.693 -16.453,3.693l-21.767,0c-6.005,0 -14.321,-0.577 -16.453,-3.693c-1.262,-1.844 -1.605,-4.139 -0.402,-6.467c2.342,-4.585 7.069,-8.942 16.549,-8.942z"/>
  </g>
  <g id="svg_4"/>
  <g id="svg_5"/>
  <g id="svg_6"/>
  <g id="svg_7"/>
  <g id="svg_8"/>
  <g id="svg_9"/>
  <g id="svg_10"/>
  <g id="svg_11"/>
  <g id="svg_12"/>
  <g id="svg_13"/>
  <g id="svg_14"/>
  <g id="svg_15"/>
  <g id="svg_16"/>
  <g id="svg_17"/>
  <g id="svg_18"/>
 </g>
</svg>